<mxfile host="app.diagrams.net" modified="2024-03-28T04:43:38.629Z" agent="Mozilla/5.0 (Windows NT 10.0; Win64; x64) AppleWebKit/537.36 (KHTML, like Gecko) Chrome/123.0.0.0 Safari/537.36" etag="XxfHdGvbXC3nW7Cw5yrI" version="24.2.0" type="device">
  <diagram name="Page-1" id="ST4EgvI5kZ9p8bmPvqci">
    <mxGraphModel dx="2950" dy="2144" grid="1" gridSize="10" guides="1" tooltips="1" connect="1" arrows="1" fold="1" page="1" pageScale="1" pageWidth="850" pageHeight="1100" math="0" shadow="0">
      <root>
        <mxCell id="0" />
        <mxCell id="1" parent="0" />
        <mxCell id="ShcZ6bzxYTtO4q_6LO4f-111" value="" style="rounded=0;whiteSpace=wrap;html=1;fillColor=#f5f5f5;fontColor=#333333;strokeColor=#666666;" parent="1" vertex="1">
          <mxGeometry x="135" y="-40" width="205" height="100" as="geometry" />
        </mxCell>
        <mxCell id="ShcZ6bzxYTtO4q_6LO4f-189" value="" style="rounded=0;whiteSpace=wrap;html=1;" parent="1" vertex="1">
          <mxGeometry x="-140" y="-110" width="1380" height="650" as="geometry" />
        </mxCell>
        <mxCell id="ShcZ6bzxYTtO4q_6LO4f-114" value="o" style="rounded=0;whiteSpace=wrap;html=1;fillColor=#ffe6cc;strokeColor=#d79b00;" parent="1" vertex="1">
          <mxGeometry x="-40" y="-70" width="1150" height="480" as="geometry" />
        </mxCell>
        <mxCell id="ShcZ6bzxYTtO4q_6LO4f-99" value="" style="rounded=0;whiteSpace=wrap;html=1;fillColor=#f5f5f5;strokeColor=#666666;fontColor=#333333;" parent="1" vertex="1">
          <mxGeometry x="325" y="296" width="135" height="60" as="geometry" />
        </mxCell>
        <mxCell id="ShcZ6bzxYTtO4q_6LO4f-15" value="" style="rounded=1;whiteSpace=wrap;html=1;fillColor=#f5f5f5;fontColor=#333333;strokeColor=#666666;" parent="1" vertex="1">
          <mxGeometry x="520" y="36" width="550" height="370" as="geometry" />
        </mxCell>
        <mxCell id="ShcZ6bzxYTtO4q_6LO4f-17" value="" style="rounded=1;whiteSpace=wrap;html=1;fillColor=#f5f5f5;fontColor=#333333;strokeColor=#666666;" parent="1" vertex="1">
          <mxGeometry x="730" y="76" width="80" height="294" as="geometry" />
        </mxCell>
        <mxCell id="ShcZ6bzxYTtO4q_6LO4f-1" value="" style="rounded=0;whiteSpace=wrap;html=1;strokeColor=#828282;" parent="1" vertex="1">
          <mxGeometry x="-390" y="119.5" width="180" height="140" as="geometry" />
        </mxCell>
        <mxCell id="ShcZ6bzxYTtO4q_6LO4f-2" value="&lt;b&gt;End User Environment&lt;/b&gt;" style="text;html=1;align=center;verticalAlign=middle;resizable=0;points=[];autosize=1;strokeColor=none;fillColor=none;" parent="1" vertex="1">
          <mxGeometry x="-385" y="129.5" width="150" height="30" as="geometry" />
        </mxCell>
        <mxCell id="ShcZ6bzxYTtO4q_6LO4f-3" value="" style="sketch=0;aspect=fixed;pointerEvents=1;shadow=0;dashed=0;html=1;strokeColor=none;labelPosition=center;verticalLabelPosition=bottom;verticalAlign=top;align=center;fillColor=#00188D;shape=mxgraph.azure.user" parent="1" vertex="1">
          <mxGeometry x="-385" y="169.5" width="47" height="50" as="geometry" />
        </mxCell>
        <mxCell id="ShcZ6bzxYTtO4q_6LO4f-4" value="&lt;b&gt;User&lt;/b&gt;" style="text;html=1;align=center;verticalAlign=middle;resizable=0;points=[];autosize=1;strokeColor=none;fillColor=none;" parent="1" vertex="1">
          <mxGeometry x="-381.5" y="219.5" width="50" height="30" as="geometry" />
        </mxCell>
        <mxCell id="ShcZ6bzxYTtO4q_6LO4f-5" value="" style="dashed=0;outlineConnect=0;html=1;align=center;labelPosition=center;verticalLabelPosition=bottom;verticalAlign=top;shape=mxgraph.weblogos.chrome" parent="1" vertex="1">
          <mxGeometry x="-290" y="169.5" width="50" height="50" as="geometry" />
        </mxCell>
        <mxCell id="ShcZ6bzxYTtO4q_6LO4f-6" value="&lt;b&gt;Browser&lt;/b&gt;" style="text;html=1;align=center;verticalAlign=middle;resizable=0;points=[];autosize=1;strokeColor=none;fillColor=none;" parent="1" vertex="1">
          <mxGeometry x="-300" y="217.5" width="70" height="30" as="geometry" />
        </mxCell>
        <mxCell id="ShcZ6bzxYTtO4q_6LO4f-7" value="" style="endArrow=classic;html=1;rounded=0;entryX=-0.043;entryY=0.592;entryDx=0;entryDy=0;entryPerimeter=0;" parent="1" target="ShcZ6bzxYTtO4q_6LO4f-5" edge="1">
          <mxGeometry width="50" height="50" relative="1" as="geometry">
            <mxPoint x="-330" y="199.5" as="sourcePoint" />
            <mxPoint x="-280" y="279.5" as="targetPoint" />
          </mxGeometry>
        </mxCell>
        <mxCell id="ShcZ6bzxYTtO4q_6LO4f-8" value="" style="endArrow=classic;html=1;rounded=0;exitX=1.001;exitY=0.574;exitDx=0;exitDy=0;exitPerimeter=0;" parent="1" source="ShcZ6bzxYTtO4q_6LO4f-1" edge="1">
          <mxGeometry width="50" height="50" relative="1" as="geometry">
            <mxPoint x="400" y="320" as="sourcePoint" />
            <mxPoint x="-120" y="200" as="targetPoint" />
          </mxGeometry>
        </mxCell>
        <mxCell id="ShcZ6bzxYTtO4q_6LO4f-9" value="" style="verticalLabelPosition=bottom;html=1;verticalAlign=top;align=center;strokeColor=none;fillColor=#00BEF2;shape=mxgraph.azure.traffic_manager;pointerEvents=1;" parent="1" vertex="1">
          <mxGeometry x="-120" y="163.5" width="60" height="53" as="geometry" />
        </mxCell>
        <mxCell id="ShcZ6bzxYTtO4q_6LO4f-10" value="&lt;b&gt;Azure Traffic&lt;br&gt;&amp;nbsp;Manager&lt;/b&gt;" style="text;html=1;align=center;verticalAlign=middle;resizable=0;points=[];autosize=1;strokeColor=none;fillColor=none;" parent="1" vertex="1">
          <mxGeometry x="-140" y="219.5" width="100" height="40" as="geometry" />
        </mxCell>
        <mxCell id="ShcZ6bzxYTtO4q_6LO4f-11" value="&lt;b&gt;(DNS Resolution)&lt;/b&gt;" style="text;html=1;align=center;verticalAlign=middle;resizable=0;points=[];autosize=1;strokeColor=none;fillColor=none;" parent="1" vertex="1">
          <mxGeometry x="-150" y="127.5" width="120" height="30" as="geometry" />
        </mxCell>
        <mxCell id="ShcZ6bzxYTtO4q_6LO4f-12" value="" style="image;aspect=fixed;html=1;points=[];align=center;fontSize=12;image=img/lib/azure2/networking/Application_Gateways.svg;direction=north;" parent="1" vertex="1">
          <mxGeometry x="10" y="163.5" width="64" height="64" as="geometry" />
        </mxCell>
        <mxCell id="ShcZ6bzxYTtO4q_6LO4f-13" value="" style="endArrow=classic;html=1;rounded=0;exitX=1.051;exitY=0.7;exitDx=0;exitDy=0;exitPerimeter=0;" parent="1" source="ShcZ6bzxYTtO4q_6LO4f-9" edge="1">
          <mxGeometry width="50" height="50" relative="1" as="geometry">
            <mxPoint x="280" y="310" as="sourcePoint" />
            <mxPoint x="10" y="200" as="targetPoint" />
          </mxGeometry>
        </mxCell>
        <mxCell id="ShcZ6bzxYTtO4q_6LO4f-14" value="&lt;b&gt;Application&amp;nbsp;&lt;br&gt;Gateway&lt;/b&gt;" style="text;html=1;align=center;verticalAlign=middle;resizable=0;points=[];autosize=1;strokeColor=none;fillColor=none;" parent="1" vertex="1">
          <mxGeometry x="-3" y="227.5" width="90" height="40" as="geometry" />
        </mxCell>
        <mxCell id="ShcZ6bzxYTtO4q_6LO4f-16" value="" style="image;aspect=fixed;html=1;points=[];align=center;fontSize=12;image=img/lib/azure2/compute/Container_Instances.svg;" parent="1" vertex="1">
          <mxGeometry x="550" y="54" width="64" height="68" as="geometry" />
        </mxCell>
        <mxCell id="ShcZ6bzxYTtO4q_6LO4f-18" value="&lt;b&gt;Azure Container Service&lt;/b&gt;" style="text;html=1;strokeColor=none;fillColor=none;align=center;verticalAlign=middle;whiteSpace=wrap;rounded=0;" parent="1" vertex="1">
          <mxGeometry x="610" y="46" width="156" height="30" as="geometry" />
        </mxCell>
        <mxCell id="ShcZ6bzxYTtO4q_6LO4f-20" value="" style="html=1;verticalLabelPosition=bottom;align=center;labelBackgroundColor=#ffffff;verticalAlign=top;strokeWidth=2;strokeColor=#0080F0;shadow=0;dashed=0;shape=mxgraph.ios7.icons.cube;" parent="1" vertex="1">
          <mxGeometry x="754" y="84" width="34" height="30" as="geometry" />
        </mxCell>
        <mxCell id="ShcZ6bzxYTtO4q_6LO4f-21" value="&lt;b&gt;User&lt;/b&gt;" style="text;html=1;align=center;verticalAlign=middle;resizable=0;points=[];autosize=1;strokeColor=none;fillColor=none;" parent="1" vertex="1">
          <mxGeometry x="746" y="290" width="50" height="30" as="geometry" />
        </mxCell>
        <mxCell id="ShcZ6bzxYTtO4q_6LO4f-22" value="" style="html=1;verticalLabelPosition=bottom;align=center;labelBackgroundColor=#ffffff;verticalAlign=top;strokeWidth=2;strokeColor=#0080F0;shadow=0;dashed=0;shape=mxgraph.ios7.icons.cube;" parent="1" vertex="1">
          <mxGeometry x="756" y="255" width="30" height="30" as="geometry" />
        </mxCell>
        <mxCell id="ShcZ6bzxYTtO4q_6LO4f-23" value="&lt;b&gt;Catalog&lt;/b&gt;" style="text;html=1;align=center;verticalAlign=middle;resizable=0;points=[];autosize=1;strokeColor=none;fillColor=none;" parent="1" vertex="1">
          <mxGeometry x="741" y="114" width="70" height="30" as="geometry" />
        </mxCell>
        <mxCell id="ShcZ6bzxYTtO4q_6LO4f-24" value="" style="html=1;verticalLabelPosition=bottom;align=center;labelBackgroundColor=#ffffff;verticalAlign=top;strokeWidth=2;strokeColor=#0080F0;shadow=0;dashed=0;shape=mxgraph.ios7.icons.cube;" parent="1" vertex="1">
          <mxGeometry x="756" y="201" width="30" height="30" as="geometry" />
        </mxCell>
        <mxCell id="ShcZ6bzxYTtO4q_6LO4f-25" value="&lt;b&gt;Order&lt;/b&gt;" style="text;html=1;align=center;verticalAlign=middle;resizable=0;points=[];autosize=1;strokeColor=none;fillColor=none;" parent="1" vertex="1">
          <mxGeometry x="741" y="230" width="60" height="30" as="geometry" />
        </mxCell>
        <mxCell id="ShcZ6bzxYTtO4q_6LO4f-27" value="&lt;b&gt;Notification&lt;/b&gt;" style="text;html=1;align=center;verticalAlign=middle;resizable=0;points=[];autosize=1;strokeColor=none;fillColor=none;" parent="1" vertex="1">
          <mxGeometry x="726" y="342" width="90" height="30" as="geometry" />
        </mxCell>
        <mxCell id="ShcZ6bzxYTtO4q_6LO4f-28" value="" style="html=1;verticalLabelPosition=bottom;align=center;labelBackgroundColor=#ffffff;verticalAlign=top;strokeWidth=2;strokeColor=#0080F0;shadow=0;dashed=0;shape=mxgraph.ios7.icons.cube;" parent="1" vertex="1">
          <mxGeometry x="753" y="148.5" width="30" height="30" as="geometry" />
        </mxCell>
        <mxCell id="ShcZ6bzxYTtO4q_6LO4f-29" value="&lt;b&gt;Cart&lt;/b&gt;" style="text;html=1;align=center;verticalAlign=middle;resizable=0;points=[];autosize=1;strokeColor=none;fillColor=none;" parent="1" vertex="1">
          <mxGeometry x="746" y="176" width="50" height="30" as="geometry" />
        </mxCell>
        <mxCell id="ShcZ6bzxYTtO4q_6LO4f-30" value="" style="rounded=0;whiteSpace=wrap;html=1;fillColor=#f5f5f5;fontColor=#333333;strokeColor=#666666;" parent="1" vertex="1">
          <mxGeometry x="155" y="-10" width="170" height="50" as="geometry" />
        </mxCell>
        <mxCell id="ShcZ6bzxYTtO4q_6LO4f-31" value="&lt;br&gt;&amp;nbsp;Identity Server" style="text;html=1;align=center;verticalAlign=middle;resizable=0;points=[];autosize=1;strokeColor=none;fillColor=none;fontStyle=1" parent="1" vertex="1">
          <mxGeometry x="199" y="-8" width="100" height="40" as="geometry" />
        </mxCell>
        <mxCell id="ShcZ6bzxYTtO4q_6LO4f-39" value="" style="rounded=0;whiteSpace=wrap;html=1;direction=south;strokeColor=#666666;fillColor=#f5f5f5;fontColor=#333333;" parent="1" vertex="1">
          <mxGeometry x="860" y="54" width="170" height="317" as="geometry" />
        </mxCell>
        <mxCell id="ShcZ6bzxYTtO4q_6LO4f-40" value="&lt;b style=&quot;border-color: var(--border-color);&quot;&gt;&lt;br&gt;&lt;/b&gt;" style="rounded=0;whiteSpace=wrap;html=1;strokeColor=#82b366;fillColor=#d5e8d4;" parent="1" vertex="1">
          <mxGeometry x="870" y="91" width="140" height="40" as="geometry" />
        </mxCell>
        <mxCell id="ShcZ6bzxYTtO4q_6LO4f-41" value="&lt;b&gt;Catalog&lt;br&gt;Database&lt;/b&gt;" style="text;html=1;align=center;verticalAlign=middle;resizable=0;points=[];autosize=1;strokeColor=none;fillColor=none;" parent="1" vertex="1">
          <mxGeometry x="930" y="91" width="80" height="40" as="geometry" />
        </mxCell>
        <mxCell id="ShcZ6bzxYTtO4q_6LO4f-43" value="&lt;b&gt;Databases&lt;/b&gt;" style="text;html=1;align=center;verticalAlign=middle;resizable=0;points=[];autosize=1;strokeColor=none;fillColor=none;" parent="1" vertex="1">
          <mxGeometry x="905" y="54" width="80" height="30" as="geometry" />
        </mxCell>
        <mxCell id="ShcZ6bzxYTtO4q_6LO4f-44" value="&lt;b style=&quot;border-color: var(--border-color);&quot;&gt;&lt;br&gt;&lt;/b&gt;" style="rounded=0;whiteSpace=wrap;html=1;strokeColor=#82b366;fillColor=#d5e8d4;" parent="1" vertex="1">
          <mxGeometry x="870" y="148.5" width="140" height="40" as="geometry" />
        </mxCell>
        <mxCell id="ShcZ6bzxYTtO4q_6LO4f-45" value="&lt;b&gt;Cart&lt;br&gt;Database&lt;/b&gt;" style="text;html=1;align=center;verticalAlign=middle;resizable=0;points=[];autosize=1;strokeColor=none;fillColor=none;" parent="1" vertex="1">
          <mxGeometry x="930" y="148.5" width="80" height="40" as="geometry" />
        </mxCell>
        <mxCell id="ShcZ6bzxYTtO4q_6LO4f-47" value="&lt;b style=&quot;border-color: var(--border-color);&quot;&gt;&lt;br&gt;&lt;/b&gt;" style="rounded=0;whiteSpace=wrap;html=1;strokeColor=#82b366;fillColor=#d5e8d4;" parent="1" vertex="1">
          <mxGeometry x="870" y="201" width="140" height="40" as="geometry" />
        </mxCell>
        <mxCell id="ShcZ6bzxYTtO4q_6LO4f-48" value="&lt;b&gt;Order&lt;br&gt;Database&lt;/b&gt;" style="text;html=1;align=center;verticalAlign=middle;resizable=0;points=[];autosize=1;strokeColor=none;fillColor=none;" parent="1" vertex="1">
          <mxGeometry x="930" y="201" width="80" height="40" as="geometry" />
        </mxCell>
        <mxCell id="ShcZ6bzxYTtO4q_6LO4f-50" value="&lt;b style=&quot;border-color: var(--border-color);&quot;&gt;&lt;br&gt;&lt;/b&gt;" style="rounded=0;whiteSpace=wrap;html=1;strokeColor=#82b366;fillColor=#d5e8d4;" parent="1" vertex="1">
          <mxGeometry x="870" y="255" width="140" height="40" as="geometry" />
        </mxCell>
        <mxCell id="ShcZ6bzxYTtO4q_6LO4f-51" value="&lt;b&gt;User&lt;br&gt;Database&lt;/b&gt;" style="text;html=1;align=center;verticalAlign=middle;resizable=0;points=[];autosize=1;strokeColor=none;fillColor=none;" parent="1" vertex="1">
          <mxGeometry x="930" y="255" width="80" height="40" as="geometry" />
        </mxCell>
        <mxCell id="ShcZ6bzxYTtO4q_6LO4f-53" value="&lt;b style=&quot;border-color: var(--border-color);&quot;&gt;&lt;br&gt;&lt;/b&gt;" style="rounded=0;whiteSpace=wrap;html=1;strokeColor=#82b366;fillColor=#d5e8d4;" parent="1" vertex="1">
          <mxGeometry x="870" y="311" width="140" height="40" as="geometry" />
        </mxCell>
        <mxCell id="ShcZ6bzxYTtO4q_6LO4f-54" value="&lt;b&gt;Notification&lt;br&gt;Database&lt;/b&gt;" style="text;html=1;align=center;verticalAlign=middle;resizable=0;points=[];autosize=1;strokeColor=none;fillColor=none;" parent="1" vertex="1">
          <mxGeometry x="925" y="311" width="90" height="40" as="geometry" />
        </mxCell>
        <mxCell id="ShcZ6bzxYTtO4q_6LO4f-56" value="" style="verticalLabelPosition=bottom;html=1;verticalAlign=top;align=center;strokeColor=none;fillColor=#00BEF2;shape=mxgraph.azure.sql_database;" parent="1" vertex="1">
          <mxGeometry x="890" y="154" width="30" height="30" as="geometry" />
        </mxCell>
        <mxCell id="ShcZ6bzxYTtO4q_6LO4f-74" value="" style="verticalLabelPosition=bottom;html=1;verticalAlign=top;align=center;strokeColor=none;fillColor=#00BEF2;shape=mxgraph.azure.sql_database;" parent="1" vertex="1">
          <mxGeometry x="890" y="206" width="30" height="30" as="geometry" />
        </mxCell>
        <mxCell id="ShcZ6bzxYTtO4q_6LO4f-76" value="" style="verticalLabelPosition=bottom;html=1;verticalAlign=top;align=center;strokeColor=none;fillColor=#00BEF2;shape=mxgraph.azure.sql_database;" parent="1" vertex="1">
          <mxGeometry x="890" y="260" width="30" height="30" as="geometry" />
        </mxCell>
        <mxCell id="ShcZ6bzxYTtO4q_6LO4f-77" value="" style="image;aspect=fixed;html=1;points=[];align=center;fontSize=12;image=img/lib/azure2/databases/Azure_Cosmos_DB.svg;" parent="1" vertex="1">
          <mxGeometry x="884" y="93" width="36" height="36" as="geometry" />
        </mxCell>
        <mxCell id="ShcZ6bzxYTtO4q_6LO4f-79" value="" style="image;aspect=fixed;html=1;points=[];align=center;fontSize=12;image=img/lib/azure2/databases/Azure_Cosmos_DB.svg;" parent="1" vertex="1">
          <mxGeometry x="887" y="313" width="36" height="36" as="geometry" />
        </mxCell>
        <mxCell id="ShcZ6bzxYTtO4q_6LO4f-80" value="" style="endArrow=classic;startArrow=classic;html=1;rounded=0;entryX=0;entryY=0.5;entryDx=0;entryDy=0;" parent="1" target="ShcZ6bzxYTtO4q_6LO4f-40" edge="1">
          <mxGeometry width="50" height="50" relative="1" as="geometry">
            <mxPoint x="780" y="110" as="sourcePoint" />
            <mxPoint x="850" y="113.5" as="targetPoint" />
          </mxGeometry>
        </mxCell>
        <mxCell id="ShcZ6bzxYTtO4q_6LO4f-82" value="" style="sketch=0;aspect=fixed;pointerEvents=1;shadow=0;dashed=0;html=1;strokeColor=none;labelPosition=center;verticalLabelPosition=bottom;verticalAlign=top;align=center;fillColor=#00188D;shape=mxgraph.mscae.enterprise.lock" parent="1" vertex="1">
          <mxGeometry x="851" y="44" width="24.96" height="32" as="geometry" />
        </mxCell>
        <mxCell id="ShcZ6bzxYTtO4q_6LO4f-83" value="" style="rounded=1;whiteSpace=wrap;html=1;fillColor=#f5f5f5;fontColor=#333333;strokeColor=#666666;" parent="1" vertex="1">
          <mxGeometry x="569.68" y="150.5" width="100" height="197.5" as="geometry" />
        </mxCell>
        <mxCell id="ShcZ6bzxYTtO4q_6LO4f-84" value="" style="verticalLabelPosition=bottom;html=1;verticalAlign=top;align=center;strokeColor=none;fillColor=#00BEF2;shape=mxgraph.azure.service_bus;pointerEvents=1;" parent="1" vertex="1">
          <mxGeometry x="597.1800000000001" y="181" width="45" height="50" as="geometry" />
        </mxCell>
        <mxCell id="ShcZ6bzxYTtO4q_6LO4f-85" value="&lt;b&gt;Azure&lt;/b&gt;&lt;div&gt;&lt;b&gt;&amp;nbsp;Servic&lt;/b&gt;&lt;b style=&quot;background-color: initial;&quot;&gt;e&amp;nbsp;&lt;/b&gt;&lt;/div&gt;&lt;div&gt;&lt;b style=&quot;background-color: initial;&quot;&gt;&amp;nbsp;Bus&lt;/b&gt;&lt;/div&gt;" style="text;html=1;align=center;verticalAlign=middle;resizable=0;points=[];autosize=1;strokeColor=none;fillColor=none;" parent="1" vertex="1">
          <mxGeometry x="584.6800000000001" y="235" width="70" height="60" as="geometry" />
        </mxCell>
        <mxCell id="ShcZ6bzxYTtO4q_6LO4f-86" value="" style="endArrow=classic;startArrow=classic;html=1;rounded=0;entryX=0.016;entryY=0.582;entryDx=0;entryDy=0;entryPerimeter=0;" parent="1" source="ShcZ6bzxYTtO4q_6LO4f-83" target="ShcZ6bzxYTtO4q_6LO4f-17" edge="1">
          <mxGeometry width="50" height="50" relative="1" as="geometry">
            <mxPoint x="680" y="216" as="sourcePoint" />
            <mxPoint x="730" y="166" as="targetPoint" />
          </mxGeometry>
        </mxCell>
        <mxCell id="ShcZ6bzxYTtO4q_6LO4f-88" value="" style="sketch=0;pointerEvents=1;shadow=0;dashed=0;html=1;strokeColor=none;labelPosition=center;verticalLabelPosition=bottom;verticalAlign=top;outlineConnect=0;align=center;shape=mxgraph.office.security.lock_protected;fillColor=#2072B8;" parent="1" vertex="1">
          <mxGeometry x="175" y="-6" width="24" height="32" as="geometry" />
        </mxCell>
        <mxCell id="ShcZ6bzxYTtO4q_6LO4f-90" value="" style="rounded=0;whiteSpace=wrap;html=1;fillColor=#d5e8d4;strokeColor=#82b366;" parent="1" vertex="1">
          <mxGeometry y="-14" width="100" height="60" as="geometry" />
        </mxCell>
        <mxCell id="ShcZ6bzxYTtO4q_6LO4f-92" value="" style="verticalLabelPosition=bottom;html=1;verticalAlign=top;align=center;strokeColor=none;fillColor=#00BEF2;shape=mxgraph.azure.sql_database;" parent="1" vertex="1">
          <mxGeometry x="10" y="-9" width="27.5" height="44" as="geometry" />
        </mxCell>
        <mxCell id="ShcZ6bzxYTtO4q_6LO4f-93" value="&lt;b&gt;IAM &lt;br&gt;Database&lt;/b&gt;" style="text;html=1;align=center;verticalAlign=middle;resizable=0;points=[];autosize=1;strokeColor=none;fillColor=none;" parent="1" vertex="1">
          <mxGeometry x="30" y="-4" width="80" height="40" as="geometry" />
        </mxCell>
        <mxCell id="ShcZ6bzxYTtO4q_6LO4f-94" value="" style="endArrow=classic;startArrow=classic;html=1;rounded=0;exitX=1;exitY=0.5;exitDx=0;exitDy=0;entryX=0;entryY=0.5;entryDx=0;entryDy=0;" parent="1" source="ShcZ6bzxYTtO4q_6LO4f-90" target="ShcZ6bzxYTtO4q_6LO4f-30" edge="1">
          <mxGeometry width="50" height="50" relative="1" as="geometry">
            <mxPoint x="540" y="220" as="sourcePoint" />
            <mxPoint x="590" y="170" as="targetPoint" />
          </mxGeometry>
        </mxCell>
        <mxCell id="ShcZ6bzxYTtO4q_6LO4f-95" value="" style="endArrow=classic;html=1;rounded=0;" parent="1" edge="1">
          <mxGeometry width="50" height="50" relative="1" as="geometry">
            <mxPoint x="41.329999999999984" y="99.5" as="sourcePoint" />
            <mxPoint x="41.329999999999984" y="159.5" as="targetPoint" />
          </mxGeometry>
        </mxCell>
        <mxCell id="ShcZ6bzxYTtO4q_6LO4f-96" value="" style="endArrow=none;html=1;rounded=0;" parent="1" edge="1">
          <mxGeometry width="50" height="50" relative="1" as="geometry">
            <mxPoint x="40" y="100" as="sourcePoint" />
            <mxPoint x="230" y="100" as="targetPoint" />
          </mxGeometry>
        </mxCell>
        <mxCell id="ShcZ6bzxYTtO4q_6LO4f-97" value="" style="endArrow=classic;html=1;rounded=0;" parent="1" edge="1">
          <mxGeometry width="50" height="50" relative="1" as="geometry">
            <mxPoint x="230" y="100" as="sourcePoint" />
            <mxPoint x="230" y="70" as="targetPoint" />
          </mxGeometry>
        </mxCell>
        <mxCell id="ShcZ6bzxYTtO4q_6LO4f-98" value="" style="verticalLabelPosition=bottom;html=1;verticalAlign=top;align=center;strokeColor=none;fillColor=#00BEF2;shape=mxgraph.azure.storage_blob;" parent="1" vertex="1">
          <mxGeometry x="330" y="301" width="50" height="41" as="geometry" />
        </mxCell>
        <mxCell id="ShcZ6bzxYTtO4q_6LO4f-100" value="&lt;b&gt;Azure Blob&lt;br&gt;&amp;nbsp;Storage&lt;/b&gt;" style="text;html=1;align=center;verticalAlign=middle;resizable=0;points=[];autosize=1;strokeColor=none;fillColor=none;" parent="1" vertex="1">
          <mxGeometry x="380" y="313" width="90" height="40" as="geometry" />
        </mxCell>
        <mxCell id="ShcZ6bzxYTtO4q_6LO4f-104" value="&lt;b&gt;Azure CDN&lt;/b&gt;" style="text;html=1;align=center;verticalAlign=middle;resizable=0;points=[];autosize=1;strokeColor=none;fillColor=none;" parent="1" vertex="1">
          <mxGeometry x="-134.99999999999997" y="349" width="90" height="30" as="geometry" />
        </mxCell>
        <mxCell id="ShcZ6bzxYTtO4q_6LO4f-105" value="" style="image;aspect=fixed;html=1;points=[];align=center;fontSize=12;image=img/lib/azure2/app_services/CDN_Profiles.svg;" parent="1" vertex="1">
          <mxGeometry x="-140" y="305.25" width="70.55" height="41.5" as="geometry" />
        </mxCell>
        <mxCell id="ShcZ6bzxYTtO4q_6LO4f-112" value="" style="image;aspect=fixed;html=1;points=[];align=center;fontSize=12;image=img/lib/azure2/compute/Container_Instances.svg;" parent="1" vertex="1">
          <mxGeometry x="141.76" y="-27" width="28.24" height="30" as="geometry" />
        </mxCell>
        <mxCell id="ShcZ6bzxYTtO4q_6LO4f-113" value="&lt;b&gt;Azure Container Service&lt;/b&gt;" style="text;html=1;strokeColor=none;fillColor=none;align=center;verticalAlign=middle;whiteSpace=wrap;rounded=0;" parent="1" vertex="1">
          <mxGeometry x="169" y="-40" width="156" height="30" as="geometry" />
        </mxCell>
        <mxCell id="ShcZ6bzxYTtO4q_6LO4f-115" value="&lt;b&gt;Resource Group (Region-1)&lt;/b&gt;" style="text;html=1;strokeColor=none;fillColor=none;align=center;verticalAlign=middle;whiteSpace=wrap;rounded=0;" parent="1" vertex="1">
          <mxGeometry x="10" y="-70" width="100" height="30" as="geometry" />
        </mxCell>
        <mxCell id="ShcZ6bzxYTtO4q_6LO4f-117" value="" style="image;sketch=0;aspect=fixed;html=1;points=[];align=center;fontSize=12;image=img/lib/mscae/ResourceGroup.svg;" parent="1" vertex="1">
          <mxGeometry x="-50" y="-90" width="50" height="40" as="geometry" />
        </mxCell>
        <mxCell id="ShcZ6bzxYTtO4q_6LO4f-181" value="&lt;b&gt;Resource Group (Region-2)&lt;/b&gt;" style="text;html=1;strokeColor=none;fillColor=none;align=center;verticalAlign=middle;whiteSpace=wrap;rounded=0;" parent="1" vertex="1">
          <mxGeometry x="1040" y="420" width="100" height="30" as="geometry" />
        </mxCell>
        <mxCell id="ShcZ6bzxYTtO4q_6LO4f-182" value="" style="image;sketch=0;aspect=fixed;html=1;points=[];align=center;fontSize=12;image=img/lib/mscae/ResourceGroup.svg;" parent="1" vertex="1">
          <mxGeometry x="1140" y="420" width="50" height="40" as="geometry" />
        </mxCell>
        <mxCell id="ShcZ6bzxYTtO4q_6LO4f-185" value="&lt;b&gt;&lt;font style=&quot;font-size: 18px;&quot;&gt;Geo- Replication&lt;/font&gt;&lt;/b&gt;" style="text;html=1;align=center;verticalAlign=middle;resizable=0;points=[];autosize=1;strokeColor=none;fillColor=none;" parent="1" vertex="1">
          <mxGeometry x="852" y="415" width="170" height="40" as="geometry" />
        </mxCell>
        <mxCell id="pcPWl3RKRtE7U6Oe93Bp-1" value="" style="image;aspect=fixed;html=1;points=[];align=center;fontSize=12;image=img/lib/azure2/management_governance/Application_Insights.svg;" parent="1" vertex="1">
          <mxGeometry x="-60" y="460" width="44" height="63" as="geometry" />
        </mxCell>
        <mxCell id="pcPWl3RKRtE7U6Oe93Bp-2" value="Azure Appication&amp;nbsp;&lt;br&gt;insights" style="text;html=1;align=center;verticalAlign=middle;whiteSpace=wrap;rounded=0;fontStyle=1" parent="1" vertex="1">
          <mxGeometry x="-120" y="480" width="60" height="30" as="geometry" />
        </mxCell>
        <mxCell id="pcPWl3RKRtE7U6Oe93Bp-3" value="" style="whiteSpace=wrap;html=1;aspect=fixed;" parent="1" vertex="1">
          <mxGeometry x="500" y="-66.5" width="89.5" height="89.5" as="geometry" />
        </mxCell>
        <mxCell id="pcPWl3RKRtE7U6Oe93Bp-4" value="" style="image;aspect=fixed;html=1;points=[];align=center;fontSize=12;image=img/lib/azure2/app_services/Search_Services.svg;" parent="1" vertex="1">
          <mxGeometry x="519.83" y="-56" width="49.85" height="36" as="geometry" />
        </mxCell>
        <mxCell id="pcPWl3RKRtE7U6Oe93Bp-6" value="Azure Search" style="text;html=1;align=center;verticalAlign=middle;whiteSpace=wrap;rounded=0;fontStyle=1" parent="1" vertex="1">
          <mxGeometry x="514.75" y="-14" width="60" height="30" as="geometry" />
        </mxCell>
        <mxCell id="pcPWl3RKRtE7U6Oe93Bp-8" value="" style="endArrow=classic;startArrow=classic;html=1;rounded=0;exitX=1.022;exitY=0.398;exitDx=0;exitDy=0;entryX=1.096;entryY=0.059;entryDx=0;entryDy=0;entryPerimeter=0;exitPerimeter=0;" parent="1" source="pcPWl3RKRtE7U6Oe93Bp-3" target="ShcZ6bzxYTtO4q_6LO4f-77" edge="1">
          <mxGeometry width="50" height="50" relative="1" as="geometry">
            <mxPoint x="930" y="230" as="sourcePoint" />
            <mxPoint x="600" y="185.54545454545473" as="targetPoint" />
            <Array as="points">
              <mxPoint x="923" y="-30" />
            </Array>
          </mxGeometry>
        </mxCell>
        <mxCell id="pcPWl3RKRtE7U6Oe93Bp-9" value="" style="html=1;verticalLabelPosition=bottom;align=center;labelBackgroundColor=#ffffff;verticalAlign=top;strokeWidth=2;strokeColor=#0080F0;shadow=0;dashed=0;shape=mxgraph.ios7.icons.cube;" parent="1" vertex="1">
          <mxGeometry x="755" y="318" width="30" height="30" as="geometry" />
        </mxCell>
        <mxCell id="6tlNnrPd4heptvmnpcmI-6" value="" style="endArrow=classic;startArrow=classic;html=1;rounded=0;exitX=0.85;exitY=0.596;exitDx=0;exitDy=0;exitPerimeter=0;entryX=0;entryY=0.5;entryDx=0;entryDy=0;" parent="1" source="ShcZ6bzxYTtO4q_6LO4f-105" target="ShcZ6bzxYTtO4q_6LO4f-99" edge="1">
          <mxGeometry width="50" height="50" relative="1" as="geometry">
            <mxPoint x="290" y="250" as="sourcePoint" />
            <mxPoint x="340" y="200" as="targetPoint" />
          </mxGeometry>
        </mxCell>
        <mxCell id="6tlNnrPd4heptvmnpcmI-7" value="" style="endArrow=classic;startArrow=classic;html=1;rounded=0;exitX=0.5;exitY=0;exitDx=0;exitDy=0;" parent="1" source="ShcZ6bzxYTtO4q_6LO4f-99" edge="1">
          <mxGeometry width="50" height="50" relative="1" as="geometry">
            <mxPoint x="-70" y="340" as="sourcePoint" />
            <mxPoint x="760" y="121" as="targetPoint" />
            <Array as="points">
              <mxPoint x="393" y="119" />
            </Array>
          </mxGeometry>
        </mxCell>
        <mxCell id="6tlNnrPd4heptvmnpcmI-8" value="o" style="rounded=0;whiteSpace=wrap;html=1;fillColor=none;strokeColor=#d79b00;" parent="1" vertex="1">
          <mxGeometry x="60" y="-17" width="1150" height="480" as="geometry" />
        </mxCell>
        <mxCell id="mC92Val8jMlmSlPuK5oe-2" value="" style="endArrow=classic;startArrow=classic;html=1;rounded=0;entryX=0;entryY=0.5;entryDx=0;entryDy=0;" edge="1" parent="1" source="ShcZ6bzxYTtO4q_6LO4f-28" target="ShcZ6bzxYTtO4q_6LO4f-44">
          <mxGeometry width="50" height="50" relative="1" as="geometry">
            <mxPoint x="790" y="120" as="sourcePoint" />
            <mxPoint x="880" y="121" as="targetPoint" />
            <Array as="points" />
          </mxGeometry>
        </mxCell>
        <mxCell id="mC92Val8jMlmSlPuK5oe-5" value="" style="endArrow=classic;startArrow=classic;html=1;rounded=0;entryX=0;entryY=0.5;entryDx=0;entryDy=0;" edge="1" parent="1">
          <mxGeometry width="50" height="50" relative="1" as="geometry">
            <mxPoint x="780" y="222" as="sourcePoint" />
            <mxPoint x="870" y="223" as="targetPoint" />
          </mxGeometry>
        </mxCell>
        <mxCell id="mC92Val8jMlmSlPuK5oe-6" value="" style="endArrow=classic;startArrow=classic;html=1;rounded=0;entryX=0;entryY=0.5;entryDx=0;entryDy=0;" edge="1" parent="1">
          <mxGeometry width="50" height="50" relative="1" as="geometry">
            <mxPoint x="783" y="274.23" as="sourcePoint" />
            <mxPoint x="873" y="275.23" as="targetPoint" />
          </mxGeometry>
        </mxCell>
        <mxCell id="mC92Val8jMlmSlPuK5oe-7" value="" style="endArrow=classic;startArrow=classic;html=1;rounded=0;entryX=0;entryY=0.5;entryDx=0;entryDy=0;" edge="1" parent="1">
          <mxGeometry width="50" height="50" relative="1" as="geometry">
            <mxPoint x="786" y="330.23" as="sourcePoint" />
            <mxPoint x="876" y="331.23" as="targetPoint" />
          </mxGeometry>
        </mxCell>
        <mxCell id="mC92Val8jMlmSlPuK5oe-8" value="" style="rounded=0;whiteSpace=wrap;html=1;fillColor=none;" vertex="1" parent="1">
          <mxGeometry x="-460" y="-170" width="1870" height="760" as="geometry" />
        </mxCell>
      </root>
    </mxGraphModel>
  </diagram>
</mxfile>
